<svg width="41" height="22" viewBox="0 0 41 22" fill="none" xmlns="http://www.w3.org/2000/svg">
<path d="M40.4085 3.90189H36.5007C36.1628 3.90189 35.9093 3.63208 35.9093 3.32075V0.581132C35.9093 0.249057 36.1839 0 36.5007 0H40.4085C40.7465 0 41 0.269811 41 0.581132V3.3C41 3.63208 40.7465 3.90189 40.4085 3.90189ZM40.2818 22H36.6275C36.2895 22 36.036 21.7302 36.036 21.4189V5.83208C36.036 5.5 36.3106 5.25094 36.6275 5.25094H40.2818C40.6198 5.25094 40.8733 5.52075 40.8733 5.83208V21.4396C40.8733 21.7509 40.6198 22 40.2818 22Z" fill="#660910"/>
<path d="M4.60489 0C4.90061 0 5.15409 0.249057 5.15409 0.560377V13.6566C5.15409 16.9359 6.27363 17.7245 8.72394 17.7245C9.90684 17.7245 11.0686 17.683 12.2304 17.5585V0.581132C12.2093 0.269811 12.4628 0.0207547 12.7796 0H17.3634V19.6962C17.3634 21.0038 17.0043 21.3359 15.8214 21.5019C13.6457 21.7717 11.47 21.9377 9.27314 22C3.4431 22 0 20.4226 0 13.6358V0.581132C0.0211233 0.269811 0.25348 0.0207547 0.57033 0H4.60489Z" fill="#660910"/>
<path d="M32.319 8.36415V21.4189C32.3402 21.7302 32.0867 21.9792 31.7698 22H27.7353C27.4396 22 27.1861 21.7509 27.2072 21.4396C27.2072 21.4189 27.2072 21.4189 27.2072 21.3981V8.36415C27.2072 5.08491 26.0877 4.29623 23.6374 4.29623H21.6095C21.2716 4.29623 20.9969 4.02641 20.9969 3.69434V0H23.067C28.8548 0 32.319 1.57736 32.319 8.36415Z" fill="#660910"/>
</svg>
