<svg width="204" height="147" viewBox="0 0 204 147" fill="none" xmlns="http://www.w3.org/2000/svg">
<path d="M39.3037 121.28L38.0854 86.3919L47.7613 86.054L48.9797 120.942L39.3037 121.28ZM42.7891 81.7249C41.3505 81.7752 40.0998 81.3413 39.0368 80.4233C37.9884 79.4896 37.4407 78.3489 37.3936 77.0013C37.3471 75.6687 37.8145 74.5078 38.7957 73.5184C39.7915 72.5133 41.0087 71.9857 42.4472 71.9354C43.8857 71.8852 45.1292 72.3269 46.1775 73.2606C47.2405 74.1786 47.7953 75.3039 47.8418 76.6364C47.8889 77.9841 47.4145 79.1604 46.4187 80.1655C45.4374 81.1549 44.2276 81.6747 42.7891 81.7249ZM60.0168 73.9826L60.1882 78.8887C60.2368 80.2818 60.014 81.7147 59.5196 83.1874C59.0399 84.6444 58.3758 86.0321 57.5273 87.3504C56.6783 88.6535 55.7395 89.7703 54.7107 90.7007L50.3525 88.3286C51.0679 87.1059 51.6879 85.7577 52.2125 84.284C52.7523 82.8097 52.9886 81.111 52.9215 79.1879L52.7485 74.2364L60.0168 73.9826ZM63.514 120.434L62.2957 85.5465L71.5173 85.2245L71.7323 91.3798L72.1411 91.3655C72.7966 89.2959 73.9516 87.641 75.6063 86.4007C77.261 85.1603 79.2695 84.4989 81.6317 84.4164C84.0241 84.3329 86.0817 84.8599 87.8042 85.9974C89.5263 87.1198 90.7028 88.6858 91.334 90.6953L91.6974 90.6826C92.3393 88.659 93.5706 87.0165 95.3913 85.7552C97.2266 84.4783 99.4238 83.7951 101.983 83.7058C105.238 83.5921 107.917 84.537 110.019 86.5407C112.135 88.5286 113.259 91.4154 113.391 95.201L114.21 118.664L104.557 119.001L103.804 97.446C103.737 95.5078 103.171 94.0721 102.108 93.139C101.044 92.2058 99.7401 91.7662 98.1956 91.8201C96.4391 91.8815 95.0883 92.4896 94.1431 93.6445C93.1975 94.7843 92.7564 96.2627 92.8199 98.0798L93.5638 119.385L84.1832 119.713L83.4233 97.9531C83.3636 96.242 82.8239 94.8964 81.8042 93.9162C80.7997 92.9355 79.5024 92.4729 77.9125 92.5285C76.8374 92.566 75.8778 92.8724 75.0337 93.4477C74.2043 94.0073 73.5566 94.7803 73.0908 95.7669C72.6244 96.7383 72.4137 97.8675 72.4586 99.1546L73.1899 120.096L63.514 120.434ZM146.048 118.234C142.52 118.358 139.442 117.715 136.816 116.305C134.204 114.881 132.154 112.845 130.667 110.198C129.179 107.536 128.373 104.419 128.248 100.845C128.122 97.2411 128.709 94.0672 130.008 91.3233C131.306 88.5641 133.209 86.3903 135.716 84.8019C138.237 83.1978 141.262 82.3341 144.79 82.2109C148.318 82.0877 151.388 82.7385 154 84.1634C156.626 85.5726 158.684 87.6081 160.171 90.2699C161.658 92.9166 162.465 96.0419 162.591 99.6457C162.716 103.219 162.129 106.386 160.83 109.145C159.531 111.889 157.621 114.063 155.1 115.667C152.593 117.255 149.576 118.111 146.048 118.234ZM145.831 110.737C147.436 110.681 148.761 110.18 149.804 109.234C150.847 108.273 151.613 106.988 152.103 105.379C152.607 103.769 152.824 101.95 152.754 99.921C152.683 97.892 152.339 96.0923 151.724 94.5219C151.123 92.951 150.269 91.7225 149.162 90.8363C148.054 89.9502 146.698 89.5351 145.093 89.5912C143.473 89.6478 142.126 90.1572 141.053 91.1195C139.995 92.0812 139.214 93.3669 138.709 94.9764C138.219 96.5853 138.01 98.4044 138.081 100.433C138.152 102.462 138.487 104.262 139.088 105.833C139.704 107.404 140.573 108.632 141.695 109.517C142.832 110.387 144.211 110.794 145.831 110.737ZM175.26 96.3379L175.965 116.507L166.289 116.845L165.071 81.9575L174.292 81.6355L174.507 87.7908L174.916 87.7765C175.617 85.7205 176.856 84.0702 178.632 82.8257C180.407 81.566 182.589 80.8909 185.179 80.8005C187.602 80.7159 189.732 81.1721 191.571 82.1691C193.41 83.1662 194.864 84.6315 195.932 86.5651C197 88.4835 197.581 90.798 197.675 93.5085L198.451 115.722L188.775 116.06L188.06 95.5726C188 93.437 187.397 91.7904 186.25 90.6327C185.102 89.46 183.559 88.9074 181.621 88.9751C180.319 89.0206 179.178 89.3409 178.198 89.9361C177.233 90.5307 176.489 91.3753 175.967 92.47C175.459 93.549 175.223 94.8383 175.26 96.3379Z" fill="black"/>
<path d="M144.409 28.8322L145.921 35.946L125.358 40.3169L123.846 33.2031L144.409 28.8322ZM126.775 24.0299L136.245 22.017L143.012 53.8512C143.198 54.7256 143.476 55.379 143.847 55.8114C144.215 56.229 144.656 56.4837 145.171 56.5755C145.701 56.6642 146.285 56.6409 146.922 56.5054C147.367 56.4109 147.803 56.2793 148.232 56.1107C148.658 55.9273 148.985 55.7882 149.212 55.6933L152.2 62.4238C151.757 62.6728 151.126 62.985 150.308 63.3604C149.492 63.7506 148.474 64.0986 147.253 64.4046C144.99 64.9786 142.925 65.1001 141.057 64.7689C139.205 64.4346 137.649 63.6347 136.388 62.3691C135.128 61.1035 134.267 59.3501 133.806 57.1091L126.775 24.0299Z" fill="black"/>
<path d="M11.1847 62.1782L2.29538 27.1086L12.0893 27.2796L17.0883 50.8249L17.4064 50.8305L23.4512 27.4779L33.0634 27.6457L38.3829 51.0602L38.6783 51.0654L44.4026 27.8436L54.1738 28.0141L44.0888 62.7525L33.8403 62.5736L28.2244 40.5177L27.7926 40.5102L21.4104 62.3567L11.1847 62.1782ZM65.5616 42.9424L65.2094 63.1212L55.5291 62.9522L56.3414 16.4138L65.7491 16.578L65.4385 34.3708L65.8475 34.3779C66.6712 32.3314 67.9719 30.7402 69.7496 29.6044C71.5275 28.4534 73.7421 27.9011 76.3932 27.9474C78.817 27.9897 80.9211 28.5568 82.7053 29.6487C84.505 30.7257 85.8876 32.2577 86.853 34.2445C87.8339 36.2165 88.293 38.5658 88.2302 41.2923L87.8423 63.5162L78.162 63.3473L78.5198 42.8504C78.5725 40.6995 78.0563 39.016 76.9713 37.7999C75.9014 36.584 74.3818 35.9589 72.4124 35.9246C71.0944 35.9016 69.9231 36.1615 68.8983 36.7043C67.8887 37.2473 67.0866 38.0516 66.4922 39.1172C65.9131 40.1678 65.603 41.4429 65.5616 42.9424ZM102.202 64.4261C99.9756 64.3872 97.9978 63.9663 96.2691 63.1632C94.5407 62.3451 93.1823 61.1621 92.194 59.6143C91.2212 58.0516 90.7548 56.119 90.795 53.8163C90.8289 51.8772 91.2133 50.2549 91.9483 48.9493C92.6833 47.6438 93.6714 46.6002 94.9125 45.8187C96.1536 45.0373 97.5579 44.4556 99.1254 44.0738C100.708 43.6923 102.364 43.4333 104.094 43.2968C106.128 43.1201 107.768 42.9518 109.013 42.7916C110.259 42.6164 111.165 42.3443 111.732 41.9753C112.299 41.6064 112.589 41.0508 112.602 40.3085L112.605 40.1721C112.63 38.7329 112.195 37.6115 111.3 36.8079C110.419 36.0046 109.154 35.5885 107.503 35.5596C105.76 35.5292 104.367 35.8913 103.324 36.646C102.28 37.3854 101.582 38.3279 101.229 39.4735L92.2883 38.59C92.7797 36.4771 93.7055 34.6596 95.0657 33.1377C96.426 31.6006 98.1663 30.4338 100.287 29.6373C102.422 28.826 104.884 28.4447 107.671 28.4933C109.61 28.5272 111.462 28.7868 113.227 29.2722C115.006 29.7579 116.577 30.49 117.939 31.4684C119.316 32.4472 120.393 33.6934 121.17 35.2072C121.947 36.7058 122.317 38.4929 122.281 40.5683L121.87 64.1102L112.69 63.9499L112.774 59.1098L112.501 59.105C111.922 60.186 111.155 61.1349 110.201 61.9517C109.248 62.7533 108.108 63.3775 106.782 63.8241C105.456 64.2556 103.93 64.4562 102.202 64.4261ZM105.091 57.7937C106.515 57.8185 107.778 57.5602 108.878 57.0187C109.979 56.4621 110.848 55.7044 111.486 54.7457C112.125 53.787 112.454 52.6941 112.476 51.467L112.54 47.7631C112.234 47.9547 111.814 48.1292 111.281 48.2866C110.763 48.4291 110.178 48.5629 109.524 48.6878C108.87 48.7976 108.217 48.8999 107.564 48.9946C106.911 49.0741 106.318 49.1471 105.787 49.2136C104.648 49.3604 103.651 49.6082 102.796 49.957C101.941 50.3057 101.274 50.7866 100.793 51.3995C100.313 51.9973 100.065 52.7506 100.049 53.6596C100.026 54.9776 100.486 55.9933 101.428 56.7068C102.386 57.4055 103.607 57.7678 105.091 57.7937Z" fill="black"/>
</svg>
